<?xml version="1.0" encoding="UTF-8"?>
<svg id="Warstwa_1" data-name="Warstwa 1" xmlns="http://www.w3.org/2000/svg" viewBox="0 0 463.32 475.86">
  <defs>
    <style>
      .cls-1 {
        stroke: #231f20;
        stroke-miterlimit: 10;
      }

      .cls-2 {
        stroke-width: 0px;
      }
    </style>
  </defs>
  <g>
    <path class="cls-2" d="m25.35,472.79l-17.37-101.77h20.54l4.98,40.62c1.36,11.63,2.27,23.25,3.47,35.64h.45c1.36-12.53,3.62-23.56,5.74-35.79l7.25-40.47h16.01l6.79,40.17c1.81,11.48,3.62,22.8,4.83,36.09h.3c1.36-13.29,2.57-24.16,3.93-35.94l4.98-40.32h19.33l-17.97,101.77h-20.38l-6.04-33.37c-1.66-9.36-3.17-20.99-4.53-33.37h-.3c-1.81,12.23-3.47,23.56-5.59,33.52l-6.79,33.22h-19.63Z"/>
    <path class="cls-2" d="m137.09,371.02v40.77h20.69v-40.77h19.78v101.77h-19.78v-42.58h-20.69v42.58h-19.78v-101.77h19.78Z"/>
    <path class="cls-2" d="m214.86,371.02v101.77h-19.78v-101.77h19.78Z"/>
    <path class="cls-2" d="m230.26,452.56c4.08,2.27,11.02,3.93,16.76,3.93,9.36,0,13.89-4.83,13.89-11.48,0-7.4-4.53-11.02-13.14-16.61-13.89-8.46-19.18-19.18-19.18-28.39,0-16.31,10.87-29.9,32.16-29.9,6.64,0,12.99,1.81,16.01,3.62l-3.17,17.06c-2.87-1.81-7.25-3.47-12.99-3.47-8.46,0-12.53,5.13-12.53,10.57,0,6.04,3.02,9.21,14.04,15.86,13.44,8.15,18.42,18.42,18.42,29.14,0,18.57-13.74,30.8-33.67,30.8-8.15,0-16.16-2.11-19.48-4.08l2.87-17.06Z"/>
    <path class="cls-2" d="m303.04,389.29h-17.97v-18.27h55.87v18.27h-18.12v83.5h-19.78v-83.5Z"/>
    <path class="cls-2" d="m351.36,371.02h19.78v85.01h26.12v16.76h-45.9v-101.77Z"/>
    <path class="cls-2" d="m451.77,428.1h-23.25v27.48h26.27v17.21h-46.06v-101.77h44.24v17.21h-24.46v23.41h23.25v16.46Z"/>
  </g>
  <g>
    <path class="cls-1" d="m162.63,90.06c-12.42,0-24.41,1.85-35.71,5.27h0c-4.73,1.43-9.34,3.14-13.81,5.1-.03.01-.05.02-.08.04-4.45,1.96-8.75,4.17-12.91,6.62-.05.03-.09.06-.14.08-4.13,2.45-8.11,5.12-11.91,8.02-.06.04-.12.09-.18.13-2.49,1.91-4.91,3.9-7.25,5.99-.06.05-.12.1-.17.15-1.15,1.03-2.29,2.09-3.4,3.16-.06.06-.12.11-.17.17-2.22,2.15-4.36,4.39-6.41,6.7-.1.11-.19.22-.29.33-1.01,1.14-1.99,2.3-2.96,3.48-.05.06-.09.12-.14.17-.97,1.19-1.91,2.39-2.84,3.61-.03.04-.05.07-.08.11-.91,1.2-1.79,2.42-2.65,3.66-.11.16-.22.32-.33.48-.86,1.24-1.69,2.49-2.5,3.76-.02.03-.04.06-.06.09-.8,1.25-1.57,2.52-2.32,3.81-.08.14-.17.28-.25.42-.74,1.27-1.45,2.55-2.15,3.85-.11.2-.21.39-.31.59-1.39,2.64-2.69,5.33-3.89,8.07-.1.22-.19.44-.29.66-.57,1.33-1.12,2.68-1.65,4.03-.08.22-.16.43-.25.65-.51,1.34-1,2.69-1.47,4.05-.03.08-.06.15-.08.23-.47,1.39-.92,2.8-1.34,4.22-.08.27-.16.55-.24.82-.41,1.4-.8,2.81-1.16,4.22-.05.2-.1.4-.15.6-.33,1.34-.64,2.69-.93,4.04-.04.2-.09.39-.13.59-.3,1.43-.57,2.88-.81,4.33-.05.3-.1.61-.15.91-.24,1.47-.46,2.94-.64,4.43-.02.14-.03.28-.05.42-.17,1.41-.32,2.82-.44,4.24-.02.27-.05.54-.07.81-.12,1.48-.21,2.96-.28,4.46-.01.31-.02.61-.04.92-.06,1.54-.1,3.09-.1,4.65,0,1.25.02,2.49.06,3.73.01.34.03.67.04,1.01.04.95.08,1.9.14,2.84.02.32.04.63.06.95.08,1.14.17,2.27.28,3.4,0,.08.01.16.02.25.13,1.31.28,2.62.45,3.91,3.29,25.2,14.19,47.99,30.32,66.02h0c5.63,6.29,11.9,12,18.71,17.03.02.02.05.04.07.05.8.59,1.62,1.18,2.44,1.75.09.06.17.12.26.18.76.53,1.53,1.05,2.3,1.56.13.09.26.17.39.26.74.48,1.48.96,2.23,1.43.15.1.31.19.47.29.73.45,1.46.9,2.2,1.33.17.1.35.21.52.31.73.43,1.46.85,2.2,1.26.18.1.36.2.54.3.74.41,1.49.81,2.25,1.21.17.09.35.19.52.28.77.4,1.56.8,2.34,1.18.16.08.31.16.47.23.84.41,1.68.81,2.53,1.2.1.05.21.1.31.14,3.85,1.76,7.8,3.32,11.85,4.68.2.07.4.13.59.19.79.26,1.59.52,2.39.77.3.09.6.18.91.27.7.21,1.4.42,2.11.61.36.1.71.19,1.07.29.66.18,1.32.35,1.98.52.39.1.78.19,1.18.29.63.15,1.27.3,1.9.45.42.09.83.18,1.25.27.62.13,1.24.26,1.87.38.43.09.86.17,1.3.25.62.11,1.23.22,1.85.33.44.08.88.15,1.33.22.62.1,1.23.19,1.85.28.45.06.9.13,1.35.19.62.08,1.25.16,1.87.23.45.05.9.11,1.35.15.63.07,1.27.12,1.91.18.44.04.89.08,1.33.12.66.05,1.33.09,1.99.14.42.03.84.06,1.27.08.73.04,1.47.06,2.2.09.36.01.72.03,1.08.04,1.1.03,2.2.04,3.3.04,68.03,0,123.17-55.15,123.17-123.17,0-1.2-.02-2.39-.06-3.57h0c-.79-27.78-10.79-53.26-27.04-73.49-.62-.77-1.24-1.52-1.87-2.27-22.59-26.8-56.41-43.83-94.21-43.83Zm0,177.36c-29.93,0-54.19-24.26-54.19-54.19s24.26-54.19,54.19-54.19,54.19,24.26,54.19,54.19-24.26,54.19-54.19,54.19Z"/>
    <path class="cls-1" d="m34.94,230.34c-16.48,4.28-28.66,19.26-28.66,37.08,0,21.16,17.16,38.32,38.32,38.32,8.12,0,15.63-2.53,21.83-6.84-16.71-18.75-28.02-42.41-31.49-68.56Z"/>
    <path class="cls-1" d="m456.5,74.07L435.15,2.81l-105.85,31.71c.46,2.36.7,4.8.7,7.3,0,21.16-17.16,38.32-38.32,38.32-16,0-29.7-9.8-35.43-23.73l-93.46,28c40.34.05,76.34,18.65,99.93,47.72l1.75-.52-1.32,1.05c16.17,20.14,26.41,45.25,28.07,72.68l165.2-130.95-.18-.23.28-.08Z"/>
  </g>
</svg>