<?xml version="1.0" encoding="UTF-8"?>
<svg id="Warstwa_1" data-name="Warstwa 1" xmlns="http://www.w3.org/2000/svg" viewBox="0 0 1422.06 336.87">
  <defs>
    <style>
      .cls-1 {
        stroke: #231f20;
        stroke-miterlimit: 10;
      }

      .cls-2 {
        stroke-width: 0px;
      }
    </style>
  </defs>
  <g>
    <path class="cls-1" d="m160.25,89.57c-12.42,0-24.41,1.85-35.71,5.27h0c-4.73,1.43-9.34,3.14-13.81,5.1-.03.01-.05.02-.08.04-4.45,1.96-8.75,4.17-12.91,6.62-.05.03-.09.06-.14.08-4.13,2.45-8.11,5.12-11.91,8.02-.06.04-.12.09-.18.13-2.49,1.91-4.91,3.9-7.25,5.99-.06.05-.12.1-.17.15-1.15,1.03-2.29,2.09-3.4,3.16-.06.06-.12.11-.17.17-2.22,2.15-4.36,4.39-6.41,6.7-.1.11-.19.22-.29.33-1.01,1.14-1.99,2.3-2.96,3.48-.05.06-.09.12-.14.17-.97,1.19-1.91,2.39-2.84,3.61-.03.04-.05.07-.08.11-.91,1.2-1.79,2.42-2.65,3.66-.11.16-.22.32-.33.48-.86,1.24-1.69,2.49-2.5,3.76-.02.03-.04.06-.06.09-.8,1.25-1.57,2.52-2.32,3.81-.08.14-.17.28-.25.42-.74,1.27-1.45,2.55-2.15,3.85-.11.2-.21.39-.31.59-1.39,2.64-2.69,5.33-3.89,8.07-.1.22-.19.44-.29.66-.57,1.33-1.12,2.68-1.65,4.03-.08.22-.16.43-.25.65-.51,1.34-1,2.69-1.47,4.05-.03.08-.06.15-.08.23-.47,1.39-.92,2.8-1.34,4.22-.08.27-.16.55-.24.82-.41,1.4-.8,2.81-1.16,4.22-.05.2-.1.4-.15.6-.33,1.34-.64,2.69-.93,4.04-.04.2-.09.39-.13.59-.3,1.43-.57,2.88-.81,4.33-.05.3-.1.61-.15.91-.24,1.47-.46,2.94-.64,4.43-.02.14-.03.28-.05.42-.17,1.41-.32,2.82-.44,4.24-.02.27-.05.54-.07.81-.12,1.48-.21,2.96-.28,4.46-.01.31-.02.61-.04.92-.06,1.54-.1,3.09-.1,4.65,0,1.25.02,2.49.06,3.73.01.34.03.67.04,1.01.04.95.08,1.9.14,2.84.02.32.04.63.06.95.08,1.14.17,2.27.28,3.4,0,.08.01.16.02.25.13,1.31.28,2.62.45,3.91,3.29,25.2,14.19,47.99,30.32,66.02h0c5.63,6.29,11.9,12,18.71,17.03.02.02.05.04.07.05.8.59,1.62,1.18,2.44,1.75.09.06.17.12.26.18.76.53,1.53,1.05,2.3,1.56.13.09.26.17.39.26.74.48,1.48.96,2.23,1.43.15.1.31.19.47.29.73.45,1.46.9,2.2,1.33.17.1.35.21.52.31.73.43,1.46.85,2.2,1.26.18.1.36.2.54.3.74.41,1.49.81,2.25,1.21.17.09.35.19.52.28.77.4,1.56.8,2.34,1.18.16.08.31.16.47.23.84.41,1.68.81,2.53,1.2.1.05.21.1.31.14,3.85,1.76,7.8,3.32,11.85,4.68.2.07.4.13.59.19.79.26,1.59.52,2.39.77.3.09.6.18.91.27.7.21,1.4.42,2.11.61.36.1.71.19,1.07.29.66.18,1.32.35,1.98.52.39.1.78.19,1.18.29.63.15,1.27.3,1.9.45.42.09.83.18,1.25.27.62.13,1.24.26,1.87.38.43.09.86.17,1.3.25.62.11,1.23.22,1.85.33.44.08.88.15,1.33.22.62.1,1.23.19,1.85.28.45.06.9.13,1.35.19.62.08,1.25.16,1.87.23.45.05.9.11,1.35.15.63.07,1.27.12,1.91.18.44.04.89.08,1.33.12.66.05,1.33.09,1.99.14.42.03.84.06,1.27.08.73.04,1.47.06,2.2.09.36.01.72.03,1.08.04,1.1.03,2.2.04,3.3.04,68.03,0,123.17-55.15,123.17-123.17,0-1.2-.02-2.39-.06-3.57h0c-.79-27.78-10.79-53.26-27.04-73.49-.62-.77-1.24-1.52-1.87-2.27-22.59-26.8-56.41-43.83-94.21-43.83Zm0,177.36c-29.93,0-54.19-24.26-54.19-54.19s24.26-54.19,54.19-54.19,54.19,24.26,54.19,54.19-24.26,54.19-54.19,54.19Z"/>
    <path class="cls-1" d="m32.56,229.85c-16.48,4.28-28.66,19.26-28.66,37.08,0,21.16,17.16,38.32,38.32,38.32,8.12,0,15.63-2.53,21.83-6.84-16.71-18.75-28.02-42.41-31.49-68.56Z"/>
    <path class="cls-1" d="m454.12,73.58L432.77,2.32l-105.85,31.71c.46,2.36.7,4.8.7,7.3,0,21.16-17.16,38.32-38.32,38.32-16,0-29.7-9.8-35.43-23.73l-93.46,28c40.34.05,76.34,18.65,99.93,47.72l1.75-.52-1.32,1.05c16.17,20.14,26.41,45.25,28.07,72.68l165.2-130.95-.18-.23.28-.08Z"/>
  </g>
  <g>
    <path class="cls-2" d="m568.87,270.22l-34.5-202.2h40.8l9.9,80.7c2.7,23.1,4.5,46.2,6.9,70.8h.9c2.7-24.9,7.2-46.8,11.4-71.1l14.4-80.4h31.8l13.5,79.8c3.6,22.8,7.2,45.3,9.6,71.7h.6c2.7-26.4,5.1-48,7.8-71.4l9.9-80.1h38.4l-35.7,202.2h-40.5l-12-66.3c-3.3-18.6-6.3-41.7-9-66.3h-.6c-3.6,24.3-6.9,46.8-11.1,66.6l-13.5,66h-39Z"/>
    <path class="cls-2" d="m790.87,68.02v81h41.1v-81h39.3v202.2h-39.3v-84.6h-41.1v84.6h-39.3V68.02h39.3Z"/>
    <path class="cls-2" d="m945.37,68.02v202.2h-39.3V68.02h39.3Z"/>
    <path class="cls-2" d="m975.96,230.02c8.1,4.5,21.9,7.8,33.3,7.8,18.6,0,27.6-9.6,27.6-22.8,0-14.7-9-21.9-26.1-33-27.6-16.8-38.1-38.1-38.1-56.4,0-32.4,21.6-59.4,63.9-59.4,13.2,0,25.8,3.6,31.8,7.2l-6.3,33.9c-5.7-3.6-14.4-6.9-25.8-6.9-16.8,0-24.9,10.2-24.9,21,0,12,6,18.3,27.9,31.5,26.7,16.2,36.6,36.6,36.6,57.9,0,36.9-27.3,61.2-66.9,61.2-16.2,0-32.1-4.2-38.7-8.1l5.7-33.9Z"/>
    <path class="cls-2" d="m1120.56,104.32h-35.7v-36.3h111v36.3h-36v165.9h-39.3V104.32Z"/>
    <path class="cls-2" d="m1216.56,68.02h39.3v168.9h51.9v33.3h-91.2V68.02Z"/>
    <path class="cls-2" d="m1416.06,181.42h-46.2v54.6h52.2v34.2h-91.5V68.02h87.9v34.2h-48.6v46.5h46.2v32.7Z"/>
  </g>
</svg>